HIERARCHY
ROOT Hip
{
	OFFSET 0 1.131 0.0052
	CHANNELS 6 Xposition Yposition Zposition Xrotation Yrotation Zrotation
	JOINT Abdomen
	{
		OFFSET 0 -0.047353 -0.05
		CHANNELS 3 Xrotation Zrotation Yrotation
		JOINT Chest
		{
			OFFSET 0 0.132153 0.007439
			CHANNELS 3 Xrotation Zrotation Yrotation
			JOINT Neck
			{
				OFFSET 0 0.3078 0.006161
				CHANNELS 3 Xrotation Zrotation Yrotation
				JOINT Head_comp
				{
					OFFSET 0 0.0884 0.013
					CHANNELS 3 Xrotation Yrotation Zrotation
					End Site
					{
						OFFSET -0 0.156 0.0624
					}
				}
			}
			JOINT Left_Collar
			{
				OFFSET 0.02282 0.250342 0.017193
				CHANNELS 2 Yrotation Zrotation
				JOINT Left_Shoulder
				{
					OFFSET 0.15421 0 0
					CHANNELS 3 Xrotation Yrotation Zrotation
					JOINT Left_Forearm
					{
						OFFSET 0.265212 0 0
						CHANNELS 2 Yrotation Xrotation
						JOINT Left_Hand
						{
							OFFSET 0.27571 0 0
							CHANNELS 2 Zrotation Yrotation
							JOINT L1ProxPhalanx
							{
								OFFSET 0.014142 0.001733 0.014142
								CHANNELS 3 Yrotation Zrotation Xrotation
								JOINT L1MidPhalanx
								{
									OFFSET 0.04 0 0
									CHANNELS 1 Zrotation
									JOINT L1DistPhalanx
									{
										OFFSET 0.035 0 0
										CHANNELS 1 Zrotation
										End Site
										{
											OFFSET 0.029 -0 -0
										}
									}
								}
							}
							JOINT L2ProxPhalanx
							{
								OFFSET 0.0821037 0.001578 0.0219996
								CHANNELS 2 Yrotation Zrotation
								JOINT L2MidPhalanx
								{
									OFFSET 0.04 0 0
									CHANNELS 1 Zrotation
									JOINT L2DistPhalanx
									{
										OFFSET 0.028 0 0
										CHANNELS 1 Zrotation
										End Site
										{
											OFFSET 0.02 -0 -0
										}
									}
								}
							}
							JOINT L3ProxPhalanx
							{
								OFFSET 0.083 0 0
								CHANNELS 2 Yrotation Zrotation
								JOINT L3MidPhalanx
								{
									OFFSET 0.053 0 0
									CHANNELS 1 Zrotation
									JOINT L3DistPhalanx
									{
										OFFSET 0.03 0 0
										CHANNELS 1 Zrotation
										End Site
										{
											OFFSET 0.023 -0 -0
										}
									}
								}
							}
							JOINT L4ProxPhalanx
							{
								OFFSET 0.077274 -0.000761 -0.0207055
								CHANNELS 2 Yrotation Zrotation
								JOINT L4MidPhalanx
								{
									OFFSET 0.05 0 0
									CHANNELS 1 Zrotation
									JOINT L4DistPhalanx
									{
										OFFSET 0.03 0 0
										CHANNELS 1 Zrotation
										End Site
										{
											OFFSET 0.023 -0 -0
										}
									}
								}
							}
							JOINT L5ProxPhalanx
							{
								OFFSET 0.0675499 -0.001644 -0.039
								CHANNELS 2 Yrotation Zrotation
								JOINT L5MidPhalanx
								{
									OFFSET 0.04 0 0
									CHANNELS 1 Zrotation
									JOINT L5DistPhalanx
									{
										OFFSET 0.021 0 0
										CHANNELS 1 Zrotation
										End Site
										{
											OFFSET 0.022 -0 -0
										}
									}
								}
							}
						}
					}
				}
			}
			JOINT Right_Collar
			{
				OFFSET -0.02282 0.250342 0.017193
				CHANNELS 2 Yrotation Zrotation
				JOINT Right_Shoulder
				{
					OFFSET -0.15421 0 0
					CHANNELS 3 Xrotation Yrotation Zrotation
					JOINT Right_Forearm
					{
						OFFSET -0.265212 0 0
						CHANNELS 2 Yrotation Xrotation
						JOINT Right_Hand
						{
							OFFSET -0.27571 3e-006 0
							CHANNELS 2 Zrotation Yrotation
							JOINT R1ProxPhalanx
							{
								OFFSET -0.014142 0.001733 0.014142
								CHANNELS 3 Yrotation Zrotation Xrotation
								JOINT R1MidPhalanx
								{
									OFFSET -0.04 0 0
									CHANNELS 1 Zrotation
									JOINT R1DistPhalanx
									{
										OFFSET -0.035 0 0
										CHANNELS 1 Zrotation
										End Site
										{
											OFFSET -0.029 -0 -0
										}
									}
								}
							}
							JOINT R2ProxPhalanx
							{
								OFFSET -0.0821037 0.001578 0.0219996
								CHANNELS 2 Yrotation Zrotation
								JOINT R2MidPhalanx
								{
									OFFSET -0.04 0 0
									CHANNELS 1 Zrotation
									JOINT R2DistPhalanx
									{
										OFFSET -0.028 0 0
										CHANNELS 1 Zrotation
										End Site
										{
											OFFSET -0.02 -0 -0
										}
									}
								}
							}
							JOINT R3ProxPhalanx
							{
								OFFSET -0.083 0 0
								CHANNELS 2 Yrotation Zrotation
								JOINT R3MidPhalanx
								{
									OFFSET -0.053 0 0
									CHANNELS 1 Zrotation
									JOINT R3DistPhalanx
									{
										OFFSET -0.03 0 0
										CHANNELS 1 Zrotation
										End Site
										{
											OFFSET -0.023 -0 -0
										}
									}
								}
							}
							JOINT R4ProxPhalanx
							{
								OFFSET -0.077274 -0.000761 -0.0207055
								CHANNELS 2 Yrotation Zrotation
								JOINT R4MidPhalanx
								{
									OFFSET -0.05 0 0
									CHANNELS 1 Zrotation
									JOINT R4DistPhalanx
									{
										OFFSET -0.03 0 0
										CHANNELS 1 Zrotation
										End Site
										{
											OFFSET -0.023 -0 -0
										}
									}
								}
							}
							JOINT R5ProxPhalanx
							{
								OFFSET -0.0675499 -0.001644 -0.039
								CHANNELS 2 Yrotation Zrotation
								JOINT R5MidPhalanx
								{
									OFFSET -0.04 0 0
									CHANNELS 1 Zrotation
									JOINT R5DistPhalanx
									{
										OFFSET -0.021 0 0
										CHANNELS 1 Zrotation
										End Site
										{
											OFFSET -0.022 -0 -0
										}
									}
								}
							}
						}
					}
				}
			}
		}
	}
	JOINT Left_Thigh
	{
		OFFSET 0.1118 -0.1612 -0.0442
		CHANNELS 3 Xrotation Zrotation Yrotation
		JOINT Left_Shin
		{
			OFFSET 0 -0.477856 0
			CHANNELS 1 Xrotation
			JOINT Left_Foot
			{
				OFFSET 0 -0.431952 0
				CHANNELS 2 Xrotation Zrotation
				JOINT Left_Toe
				{
					OFFSET 0 -0.0442 0.119
					CHANNELS 1 Xrotation
					End Site
					{
						OFFSET -0 -0 0.07
					}
				}
			}
		}
	}
	JOINT Right_Thigh
	{
		OFFSET -0.1118 -0.1612 -0.0442
		CHANNELS 3 Xrotation Zrotation Yrotation
		JOINT Right_Shin
		{
			OFFSET 0 -0.477856 0
			CHANNELS 1 Xrotation
			JOINT Right_Foot
			{
				OFFSET 0 -0.431952 0
				CHANNELS 2 Xrotation Zrotation
				JOINT Right_Toe
				{
					OFFSET 0 -0.0442 0.119
					CHANNELS 1 Xrotation
					End Site
					{
						OFFSET -0 -0 0.07
					}
				}
			}
		}
	}
}
MOTION
Frames: 13
Frame Time: 0.009975
-0.0989635 -0.0601552 0.0504966 7.62684e-013 6.4576e-008 -5.10942e-006 0 0 0 0 0 0 0 0 0 0 0 0 0 0 -0 0 -0 0 0 0 0 -40.5316 -43.5896 103.283 -7.10789 -4.81548 2.69559 -7.40342 -2.98992 -6.72733 5.89092 0.508958 -5.4973 -5.3917 11.1257 1.19015 -12.1062 -9.35422 19.4153 3.33565 -41.2194 -1.46018 0 0 -0 0 -0 0 0 0 0 37.9386 28.008 73.698 26.2405 28.4472 13.118 18.2167 29.0248 19.6359 0 22.4358 32.6146 28.1246 -8.63175 30.7051 32.2053 23.7634 -7.83088 26.7354 35.1526 30.0193 0.712694 -0.80841 -0.0100559 0.0240216 -0.736645 0.808477 0 0.7241 -0.808408 -0.0102169 0 -0.724028 0.808477 0 
-0.0989635 -0.0601552 0.0504966 7.62684e-013 6.4576e-008 -5.10942e-006 0 0 0 0 0 0 0 0 0 0 0 0 0 0 -0 0 -0 0 0 0 0 -40.5316 -43.5896 103.283 -7.10789 -4.81548 2.69559 -7.40342 -2.98992 -6.72733 5.89092 0.508958 -5.4973 -5.3917 11.1257 1.19015 -12.1062 -9.35422 19.4153 3.33565 -41.2194 -1.46018 0 0 -0 0 -0 0 0 0 0 37.9386 28.008 73.698 26.2405 28.4472 13.118 18.2167 29.0248 19.6359 0 22.4358 32.6146 28.1246 -8.63175 30.7051 32.2053 23.7634 -7.83088 26.7354 35.1526 30.0193 0.712694 -0.80841 -0.0100559 0.0240216 -0.736645 0.808477 0 0.7241 -0.808408 -0.0102169 0 -0.724028 0.808477 0 
-0.101417 -0.0602312 0.0570357 8.39071e-013 1.01299e-007 -5.0831e-006 0 -0 0 0 -0 0 0 -0 0 -0.710433 0.291093 -9.0689e-006 8.23173 -30.8602 -2.00698 2.44773 -18.4722 -117.265 -7.15528 3.70277 -16.8198 -40.6385 -43.5109 103.135 -7.24735 -4.8914 2.67736 -7.51636 -3.17497 -6.76869 5.86226 0.346656 -5.66981 -5.45475 11.0789 1.02468 -12.2457 -9.39745 19.3495 3.19963 -41.1833 -1.55288 -8.23173 30.8602 -2.00698 -2.44773 18.4722 117.265 -7.15528 -3.70277 16.8198 40.6385 43.5109 103.135 7.24735 4.8914 -2.67736 7.51636 3.17497 6.76869 -5.86226 -0.346656 5.66981 5.45475 -11.0789 -1.02468 12.2457 9.39745 -19.3495 -3.19963 41.1833 1.55288 1.12461 -0.653859 -0.0128678 0.0239015 -1.14844 0.653991 0 1.13596 -0.653857 -0.0129976 1.69901e-006 -1.13589 0.653991 0 
-0.10135 -0.0602216 0.0565644 8.43311e-013 1.01808e-007 -5.10865e-006 0 -0 0 0 -0 0 0 -0 0 -0.713703 0.291356 -2.37587e-011 8.27208 -31.015 -2.01887 2.45218 -18.1297 -117.852 -7.17761 3.72125 -16.9043 -40.5316 -43.5896 103.283 -7.10789 -4.81548 2.69559 -7.40342 -2.98992 -6.72733 5.89092 0.508958 -5.4973 -5.3917 11.1257 1.19015 -12.1062 -9.35422 19.4153 3.33565 -41.2194 -1.46018 -8.27208 31.015 -2.01887 -2.45218 18.1297 117.852 -7.17761 -3.72125 16.9043 40.5316 43.5896 103.283 7.10789 4.81548 -2.69559 7.40342 2.98992 6.72733 -5.89092 -0.508958 5.4973 5.3917 -11.1257 -1.19015 12.1062 9.35422 -19.4153 -3.33565 41.2194 1.46018 1.09487 -0.658102 -0.0125771 0.0240216 -1.11882 0.658228 0 1.10627 -0.6581 -0.0127081 1.28066e-008 -1.1062 0.658228 0 
-0.10135 -0.0602214 0.0565553 4.36109e-013 9.86007e-008 -5.10871e-006 0 -0 0 0 -0 0 0 -0 0 -0.713686 0.291335 -1.5392e-014 8.27208 -31.015 -2.01884 2.45218 -18.1297 -117.852 -7.17761 3.72125 -16.9043 -40.5316 -43.5896 103.283 -7.10789 -4.81548 2.69559 -7.40342 -2.98992 -6.72733 5.89092 0.508958 -5.4973 -5.3917 11.1257 1.19015 -12.1062 -9.35422 19.4153 3.33565 -41.2194 -1.46018 -8.27208 31.015 -2.01884 -2.45218 18.1297 117.852 -7.17761 -3.72125 16.9043 40.5316 43.5896 103.283 7.10789 4.81548 -2.69559 7.40342 2.98992 6.72733 -5.89092 -0.508958 5.4973 5.3917 -11.1257 -1.19015 12.1062 9.35422 -19.4153 -3.33565 41.2194 1.46018 1.0943 -0.658117 -0.0125708 0.0240216 -1.11824 0.658242 0 1.1057 -0.658115 -0.0127018 0 -1.10563 0.658242 0 
-0.10135 -0.0602214 0.0565552 4.44084e-013 9.86002e-008 -5.10871e-006 0 -0 0 0 -0 0 0 -0 0 -0.713686 0.291334 -0 8.27208 -31.015 -2.01884 2.45218 -18.1297 -117.852 -7.17761 3.72125 -16.9043 -40.5316 -43.5896 103.283 -7.10789 -4.81548 2.69559 -7.40342 -2.98992 -6.72733 5.89092 0.508958 -5.4973 -5.3917 11.1257 1.19015 -12.1062 -9.35422 19.4153 3.33565 -41.2194 -1.46018 -8.27208 31.015 -2.01884 -2.45218 18.1297 117.852 -7.17761 -3.72125 16.9043 40.5316 43.5896 103.283 7.10789 4.81548 -2.69559 7.40342 2.98992 6.72733 -5.89092 -0.508958 5.4973 5.3917 -11.1257 -1.19015 12.1062 9.35422 -19.4153 -3.33565 41.2194 1.46018 1.09429 -0.658117 -0.0125707 0.0240216 -1.11824 0.658242 0 1.10569 -0.658115 -0.0127017 2.79625e-006 -1.10562 0.658242 0 
-0.10135 -0.0602214 0.0565552 4.44107e-013 9.86002e-008 -5.10871e-006 0 -0 0 0 -0 0 0 -0 0 -0.713686 0.291334 -0 8.27208 -31.015 -2.01884 2.45218 -18.1297 -117.852 -7.17761 3.72125 -16.9043 -40.5316 -43.5896 103.283 -7.10789 -4.81548 2.69559 -7.40342 -2.98992 -6.72733 5.89092 0.508958 -5.4973 -5.3917 11.1257 1.19015 -12.1062 -9.35422 19.4153 3.33565 -41.2194 -1.46018 -8.27208 31.015 -2.01884 -2.45218 18.1297 117.852 -7.17761 -3.72125 16.9043 40.5316 43.5896 103.283 7.10789 4.81548 -2.69559 7.40342 2.98992 6.72733 -5.89092 -0.508958 5.4973 5.3917 -11.1257 -1.19015 12.1062 9.35422 -19.4153 -3.33565 41.2194 1.46018 1.09429 -0.658117 -0.0125707 0.0240216 -1.11824 0.658242 0 1.10569 -0.658115 -0.0127017 2.83165e-006 -1.10562 0.658242 0 
-0.10135 -0.0602214 0.0565552 -3.68027e-013 9.86002e-008 -5.10871e-006 0 -0 0 0 -0 0 0 -0 0 -0.713686 0.291334 3.88256e-019 8.27208 -31.015 -2.01884 2.45218 -18.1297 -117.852 -7.17761 3.72125 -16.9043 -40.5316 -43.5896 103.283 -7.10789 -4.81548 2.69559 -7.40342 -2.98992 -6.72733 5.89092 0.508958 -5.4973 -5.3917 11.1257 1.19015 -12.1062 -9.35422 19.4153 3.33565 -41.2194 -1.46018 -8.27208 31.015 -2.01884 -2.45218 18.1297 117.852 -7.17761 -3.72125 16.9043 40.5316 43.5896 103.283 7.10789 4.81548 -2.69559 7.40342 2.98992 6.72733 -5.89092 -0.508958 5.4973 5.3917 -11.1257 -1.19015 12.1062 9.35422 -19.4153 -3.33565 41.2194 1.46018 1.09429 -0.658117 -0.0125707 0.0240216 -1.11824 0.658242 0 1.10569 -0.658115 -0.0127017 4.95538e-008 -1.10562 0.658242 0 
-0.10135 -0.0602214 0.0565552 2.41347e-013 9.86002e-008 -5.10871e-006 0 -0 0 0 -0 0 0 -0 0 -0.713686 0.291334 -0 8.27208 -31.015 -2.01884 2.45218 -18.1297 -117.852 -7.17761 3.72125 -16.9043 -40.5316 -43.5896 103.283 -7.10789 -4.81548 2.69559 -7.40342 -2.98992 -6.72733 5.89092 0.508958 -5.4973 -5.3917 11.1257 1.19015 -12.1062 -9.35422 19.4153 3.33565 -41.2194 -1.46018 -8.27208 31.015 -2.01884 -2.45218 18.1297 117.852 -7.17761 -3.72125 16.9043 40.5316 43.5896 103.283 7.10789 4.81548 -2.69559 7.40342 2.98992 6.72733 -5.89092 -0.508958 5.4973 5.3917 -11.1257 -1.19015 12.1062 9.35422 -19.4153 -3.33565 41.2194 1.46018 1.09429 -0.658117 -0.0125707 0.0240216 -1.11824 0.658242 0 1.10569 -0.658115 -0.0127017 0 -1.10562 0.658242 0 
-0.10135 -0.0602214 0.0565552 -3.06006e-013 9.86002e-008 -5.10871e-006 0 -0 0 0 -0 0 0 -0 0 -0.713686 0.291334 -3.88256e-019 8.27208 -31.015 -2.01884 2.45218 -18.1297 -117.852 -7.17761 3.72125 -16.9043 -40.5316 -43.5896 103.283 -7.10789 -4.81548 2.69559 -7.40342 -2.98992 -6.72733 5.89092 0.508958 -5.4973 -5.3917 11.1257 1.19015 -12.1062 -9.35422 19.4153 3.33565 -41.2194 -1.46018 -8.27208 31.015 -2.01884 -2.45218 18.1297 117.852 -7.17761 -3.72125 16.9043 40.5316 43.5896 103.283 7.10789 4.81548 -2.69559 7.40342 2.98992 6.72733 -5.89092 -0.508958 5.4973 5.3917 -11.1257 -1.19015 12.1062 9.35422 -19.4153 -3.33565 41.2194 1.46018 1.09429 -0.658117 -0.0125707 0.0240216 -1.11824 0.658242 0 1.10569 -0.658115 -0.0127017 2.76793e-006 -1.10562 0.658242 0 
-0.10135 -0.0602214 0.0565552 5.3595e-014 9.86002e-008 -5.10871e-006 0 -0 0 0 -0 0 0 -0 0 -0.713686 0.291334 3.88256e-019 8.27208 -31.015 -2.01884 2.45218 -18.1297 -117.852 -7.17761 3.72125 -16.9043 -40.5316 -43.5896 103.283 -7.10789 -4.81548 2.69559 -7.40342 -2.98992 -6.72733 5.89092 0.508958 -5.4973 -5.3917 11.1257 1.19015 -12.1062 -9.35422 19.4153 3.33565 -41.2194 -1.46018 -8.27208 31.015 -2.01884 -2.45218 18.1297 117.852 -7.17761 -3.72125 16.9043 40.5316 43.5896 103.283 7.10789 4.81548 -2.69559 7.40342 2.98992 6.72733 -5.89092 -0.508958 5.4973 5.3917 -11.1257 -1.19015 12.1062 9.35422 -19.4153 -3.33565 41.2194 1.46018 1.09429 -0.658117 -0.0125707 0.0240216 -1.11824 0.658242 0 1.10569 -0.658115 -0.0127017 2.83165e-006 -1.10562 0.658242 0 
-0.10135 -0.0602214 0.0565552 -4.1345e-013 9.86002e-008 -5.10871e-006 0 -0 0 0 -0 0 0 -0 0 -0.713686 0.291334 -0 8.27208 -31.015 -2.01884 2.45218 -18.1297 -117.852 -7.17761 3.72125 -16.9043 -40.5316 -43.5896 103.283 -7.10789 -4.81548 2.69559 -7.40342 -2.98992 -6.72733 5.89092 0.508958 -5.4973 -5.3917 11.1257 1.19015 -12.1062 -9.35422 19.4153 3.33565 -41.2194 -1.46018 -8.27208 31.015 -2.01884 -2.45218 18.1297 117.852 -7.17761 -3.72125 16.9043 40.5316 43.5896 103.283 7.10789 4.81548 -2.69559 7.40342 2.98992 6.72733 -5.89092 -0.508958 5.4973 5.3917 -11.1257 -1.19015 12.1062 9.35422 -19.4153 -3.33565 41.2194 1.46018 1.09429 -0.658117 -0.0125707 0.0240216 -1.11824 0.658242 0 1.10569 -0.658115 -0.0127017 2.41484e-006 -1.10562 0.658242 0 
-0.10135 -0.0602214 0.0565552 -4.42373e-013 9.86002e-008 -5.10871e-006 0 -0 0 0 -0 0 0 -0 0 -0.713686 0.291334 -3.88256e-019 8.27208 -31.015 -2.01884 2.45218 -18.1297 -117.852 -7.17761 3.72125 -16.9043 -40.5316 -43.5896 103.283 -7.10789 -4.81548 2.69559 -7.40342 -2.98992 -6.72733 5.89092 0.508958 -5.4973 -5.3917 11.1257 1.19015 -12.1062 -9.35422 19.4153 3.33565 -41.2194 -1.46018 -8.27208 31.015 -2.01884 -2.45218 18.1297 117.852 -7.17761 -3.72125 16.9043 40.5316 43.5896 103.283 7.10789 4.81548 -2.69559 7.40342 2.98992 6.72733 -5.89092 -0.508958 5.4973 5.3917 -11.1257 -1.19015 12.1062 9.35422 -19.4153 -3.33565 41.2194 1.46018 1.09429 -0.658117 -0.0125707 0.0240216 -1.11824 0.658242 0 1.10569 -0.658115 -0.0127017 7.24451e-008 -1.10562 0.658242 0 
